# xmcd
#
# Track frame offsets:
#	150
#	9320
#	17670
#	42195
#	47035
#	63320
#	78502
#	100370
#	112482
#	131197
#	154595
#	171340
#	186632
#	209390
#	239397
#	269100
#	271590
#	277642
#	300600
#
# Disc length: 4058 seconds
#
# Revision: 1
# Processed by: cddbd v1.5.1PL0 Copyright (c) Steve Scherf et al.
# Submitted via: CDex 1.50Beta5
#
DISCID=110fd813
DTITLE=三石琴乃・相原誠吾 - 流ゲーCHANNEL 夏の超特大合併号!
DYEAR=1900
DGENRE=Unclassifiable
TTITLE0=オープニング〜リビングルームにて・・・
TTITLE1=「流ゲー戦隊リュウセイデャーπr2」のテーマ
TTITLE2=「流ゲー戦隊リュウセイデャーπr2」前々々々編
TTITLE3=CM/ネンネ・タンポン 月のもの
TTITLE4=迷宮の羊たち
TTITLE5=「緊急報道特別番組・相原誠吾〜その知られざる実態」
TTITLE6=「流ゲー戦隊リュウセイデャーπr2」前々々編
TTITLE7=ブレイク・タイム〜訪問者桃子
TTITLE8=ゲームで吐血
TTITLE9=「進め電脳少年」
TTITLE10=「流ゲー戦隊リュウセイデャーπr2」前々編
TTITLE11=「結婚特ダネ帝国〜え〜っ、セクシーパンツを人前でもよ
TTITLE12=「流ゲー戦隊リュウセイデャーπr2」前編
TTITLE13=「流ゲー大爆笑'95〜もしこんな流ゲーがあったら」
TTITLE14=「流ゲー戦隊リュウセイデャーπr2」後編
TTITLE15=CM/THEナゼなんだー麺
TTITLE16=「流星野郎のゲーム業界裏事情」〜"あるある"のコーナー
TTITLE17=GAME・GAME・GAME
TTITLE18=エンディング〜ベッドルームへと・・・
EXTD=
EXTT0=
EXTT1=
EXTT2=
EXTT3=
EXTT4=
EXTT5=
EXTT6=
EXTT7=
EXTT8=
EXTT9=
EXTT10=
EXTT11=
EXTT12=
EXTT13=
EXTT14=
EXTT15=
EXTT16=
EXTT17=
EXTT18=
PLAYORDER=
